<?xml version="1.0" standalone="no"?>
<!DOCTYPE svg PUBLIC "-//W3C//DTD SVG 20010904//EN"
 "http://www.w3.org/TR/2001/REC-SVG-20010904/DTD/svg10.dtd">
<svg version="1.0" xmlns="http://www.w3.org/2000/svg"
 width="600.000000pt" height="600.000000pt" viewBox="0 0 600.000000 600.000000"
 preserveAspectRatio="xMidYMid meet">

<g transform="translate(0.000000,600.000000) scale(0.100000,-0.100000)"
fill="#000000" stroke="none">
<path d="M2763 5783 c-24 -2 -43 -8 -43 -14 0 -5 -9 -9 -20 -9 -11 0 -28 -4
-38 -9 -9 -5 -46 -14 -81 -21 -48 -8 -69 -18 -84 -36 -14 -18 -23 -22 -30 -15
-21 21 -56 12 -71 -18 -19 -35 -50 -56 -100 -65 -52 -10 -111 -49 -138 -91
-13 -19 -31 -35 -42 -35 -12 0 -16 -5 -12 -16 3 -8 1 -24 -5 -35 -17 -33 -92
-106 -129 -126 -19 -11 -37 -28 -39 -39 -2 -10 -15 -32 -29 -49 -32 -38 -62
-109 -62 -145 0 -16 -8 -51 -19 -77 -10 -26 -22 -64 -26 -83 -4 -19 -13 -48
-20 -65 -33 -80 -52 -273 -55 -550 -1 -165 3 -221 17 -255 5 -14 13 -38 17
-53 6 -26 5 -27 -15 -17 -29 16 -35 6 -10 -19 12 -12 18 -21 13 -21 -4 0 1 -7
10 -14 16 -12 16 -14 -7 -34 -30 -27 -33 -27 -54 -4 -51 57 -115 70 -131 26
-15 -39 -12 -76 10 -104 15 -19 20 -21 20 -9 0 18 20 29 50 29 11 0 24 9 30
20 11 20 12 19 43 -10 36 -34 45 -36 53 -15 10 25 24 17 24 -14 0 -16 7 -41
14 -57 18 -33 15 -40 -21 -47 -17 -4 -35 -18 -45 -37 -19 -33 -25 -66 -8 -40
7 11 10 8 10 -16 0 -34 25 -53 44 -34 5 5 20 10 32 10 20 0 22 7 29 83 4 45
10 87 15 92 4 6 10 84 14 175 l6 165 45 90 c25 49 45 97 44 105 -1 8 -1 17 0
20 1 3 4 50 5 105 2 56 8 101 14 103 5 1 8 12 5 22 -4 14 0 20 11 20 9 0 16 8
17 18 0 10 3 12 6 5 7 -18 21 -16 26 5 4 14 5 14 6 -3 1 -17 4 -15 16 9 8 15
15 40 15 55 0 20 2 23 10 11 7 -12 10 -8 10 15 1 28 2 28 12 10 7 -11 18 -26
25 -33 7 -7 13 -17 13 -22 0 -4 9 -6 20 -3 17 4 20 0 20 -23 0 -23 2 -26 10
-14 9 13 12 12 25 -4 8 -11 15 -26 15 -33 0 -20 12 -16 37 14 13 14 23 21 23
15 0 -23 16 -12 27 18 12 32 64 61 71 40 3 -7 12 -5 25 7 11 10 17 12 13 6 -4
-7 -3 -13 3 -13 6 0 13 -16 17 -36 7 -37 7 -37 20 -13 10 19 13 20 14 7 0 -10
7 -18 16 -18 9 0 12 -5 8 -12 -5 -8 0 -9 14 -6 12 4 25 2 28 -4 4 -6 10 -5 15
3 7 11 9 10 9 -3 0 -10 4 -18 9 -18 5 0 11 -10 14 -22 5 -19 8 -20 23 -7 15
12 17 12 12 -1 -3 -8 1 -21 8 -28 11 -10 16 -7 28 20 l14 33 1 -60 c1 -49 5
-63 21 -73 18 -11 20 -10 20 15 0 16 5 35 11 43 8 11 9 7 5 -19 -5 -27 -3 -32
9 -27 10 3 15 -1 15 -12 1 -15 2 -15 12 2 19 33 51 66 65 66 7 0 32 19 55 42
27 27 43 37 46 29 2 -7 0 -16 -5 -20 -5 -3 -13 -15 -17 -26 -6 -17 -4 -16 16
5 13 13 28 33 33 45 6 11 22 22 35 23 14 2 33 11 42 19 9 8 28 16 42 17 14 0
26 4 26 8 0 4 7 5 15 2 8 -4 15 -1 15 6 0 9 14 11 50 8 33 -3 54 -1 60 7 6 7
20 15 30 18 36 9 40 -21 15 -126 -12 -53 -19 -99 -15 -102 5 -3 14 21 20 52
20 93 41 144 65 153 12 5 31 20 43 34 24 32 28 32 36 4 6 -22 7 -23 21 -4 15
20 75 34 166 40 26 2 52 7 58 10 6 4 11 0 11 -8 0 -24 19 -19 25 7 8 30 65 36
72 7 5 -18 10 -22 29 -19 14 2 22 -26 13 -42 -8 -15 -4 -18 21 -17 17 1 33 -2
36 -5 4 -3 8 -55 11 -114 2 -59 9 -110 14 -111 6 -3 5 -10 -2 -18 -9 -11 -9
-18 -1 -26 9 -9 8 -16 -5 -30 -16 -18 -16 -21 1 -49 15 -26 16 -35 6 -54 -11
-20 -10 -30 4 -58 9 -19 16 -40 16 -46 0 -6 5 -10 11 -9 6 2 21 -24 33 -57 18
-46 25 -90 30 -188 3 -70 11 -137 17 -148 11 -22 31 -122 30 -154 0 -33 26
-52 75 -53 26 -1 43 2 40 7 -4 5 0 11 6 14 10 3 10 7 -1 20 -7 10 -17 32 -20
50 -5 23 -13 33 -29 35 -14 2 -22 10 -22 23 0 10 -4 19 -10 19 -5 0 -7 7 -5
15 16 51 16 50 26 35 8 -12 9 -9 7 10 -3 32 16 43 20 12 3 -22 5 -22 36 14 38
43 49 40 76 -20 l19 -41 0 31 c1 41 10 48 32 23 16 -19 20 -20 34 -6 27 27 12
108 -23 122 -16 6 -102 -31 -114 -49 -5 -7 -8 -6 -8 3 0 8 -8 20 -17 27 -17
12 -17 14 6 44 22 30 22 32 3 26 -19 -7 -20 -3 -16 133 2 77 8 150 12 163 4
13 7 57 6 98 -1 41 -3 127 -4 190 -2 63 -7 129 -12 147 -5 17 -13 62 -18 100
-18 131 -22 148 -43 171 -17 19 -19 25 -8 31 11 7 9 15 -10 42 -13 19 -31 40
-41 47 -19 14 -25 57 -9 66 6 4 6 17 0 34 -5 15 -11 52 -14 82 -8 78 -51 153
-90 160 -39 7 -57 19 -74 52 -10 20 -18 25 -27 17 -8 -7 -14 -6 -17 3 -4 10
-6 10 -6 1 -1 -15 -41 -18 -41 -3 0 6 7 10 15 10 8 0 15 5 15 10 0 6 -9 10
-20 10 -17 0 -20 7 -20 39 0 43 -11 56 -55 67 -17 4 -43 16 -60 26 -16 10 -42
18 -57 18 -16 0 -37 9 -48 20 -12 12 -33 20 -53 20 -21 0 -41 8 -52 20 -20 22
-64 26 -84 8 -10 -11 -16 -9 -31 10 -10 12 -24 22 -32 22 -8 0 -19 5 -25 11
-20 20 -96 28 -180 18 -68 -9 -86 -8 -112 5 -29 16 -125 19 -238 9z m654 -108
c9 -25 -4 -29 -17 -6 -7 15 -7 21 0 21 6 0 13 -7 17 -15z m-650 -1177 c-3 -8
-6 -5 -6 6 -1 11 2 17 5 13 3 -3 4 -12 1 -19z m1433 -697 c0 -6 -4 -13 -10
-16 -5 -3 -10 1 -10 9 0 9 5 16 10 16 6 0 10 -4 10 -9z"/>
<path d="M3292 4360 c0 -14 2 -19 5 -12 2 6 2 18 0 25 -3 6 -5 1 -5 -13z"/>
<path d="M2260 3985 c-7 -9 -19 -14 -27 -11 -8 3 -16 -1 -19 -9 -4 -8 -13 -15
-21 -15 -10 0 -12 -6 -8 -19 3 -11 1 -22 -5 -26 -6 -3 -8 -11 -5 -16 4 -5 2
-9 -4 -9 -5 0 -12 6 -14 13 -3 6 -6 3 -6 -8 -1 -17 -3 -18 -11 -5 -9 13 -11
13 -20 0 -8 -12 -10 -9 -10 12 0 20 6 27 22 30 13 2 24 11 27 23 3 19 3 19
-16 2 -11 -10 -27 -15 -36 -11 -13 5 -16 -4 -19 -58 -3 -57 -5 -63 -26 -66
-19 -3 -23 -8 -18 -25 3 -12 6 -32 6 -45 0 -53 88 -95 120 -57 14 17 40 20 40
5 0 -5 9 -10 20 -10 12 0 20 -7 21 -17 0 -14 2 -14 9 4 5 12 16 25 25 31 15 8
15 12 4 31 -13 20 -12 24 10 42 32 26 51 24 51 -6 0 -43 27 -82 62 -93 18 -6
91 -11 161 -12 121 -1 129 0 134 19 4 17 9 19 24 11 21 -12 78 -10 86 3 8 13
-18 157 -27 152 -13 -8 -31 22 -24 40 6 15 3 17 -19 13 -15 -3 -27 -2 -27 2 0
31 -140 72 -268 79 -7 1 -10 6 -7 11 7 11 -18 13 -52 4 -13 -4 -20 -11 -16
-17 4 -7 -5 -8 -27 -4 -18 4 -41 7 -52 7 -10 0 -16 5 -13 10 10 16 -11 11 -25
-5z m-5 -45 c-10 -11 -20 -18 -23 -16 -5 6 21 35 32 36 5 0 1 -9 -9 -20z m345
-173 c0 -10 5 -15 11 -11 6 4 9 -1 8 -12 -2 -11 2 -29 9 -41 10 -19 10 -22 -5
-21 -10 0 -40 -3 -67 -8 l-49 -7 24 32 c17 23 24 46 24 75 0 43 0 43 22 27 12
-9 23 -24 23 -34z m-338 -79 c-9 -9 -12 -7 -12 12 0 19 3 21 12 12 9 -9 9 -15
0 -24z"/>
<path d="M2120 3980 c-13 -8 -12 -10 3 -10 9 0 17 5 17 10 0 12 -1 12 -20 0z"/>
<path d="M3600 3973 c0 -3 8 -15 17 -25 16 -18 16 -18 -3 -12 -10 4 -24 11
-31 16 -7 6 -17 7 -23 3 -5 -3 -10 -1 -10 4 0 6 -7 11 -16 11 -12 0 -14 -3 -6
-13 9 -10 -2 -13 -56 -15 -79 -2 -121 -6 -142 -15 -8 -4 -34 -8 -58 -10 -23
-1 -50 -10 -61 -18 -10 -9 -36 -24 -59 -34 l-41 -18 0 -79 c0 -43 -3 -82 -6
-88 -7 -11 25 -70 37 -70 4 0 8 7 8 15 0 9 9 25 20 37 17 19 20 19 20 5 0 -9
6 -18 13 -18 6 -1 21 -3 32 -4 33 -4 89 -7 114 -6 48 2 0 18 -62 20 -10 1 -15
6 -12 11 4 6 11 8 16 5 5 -4 9 5 9 19 0 14 5 28 10 31 6 4 8 15 5 25 -3 11 0
20 10 24 21 8 31 4 27 -12 -6 -24 38 -99 64 -110 60 -28 122 2 144 69 12 35
40 55 40 29 0 -5 9 -10 20 -10 26 0 25 -10 -5 -42 -33 -36 -32 -40 10 -22 27
11 35 11 33 2 -2 -9 7 -12 25 -10 16 2 41 -5 55 -15 34 -22 46 -19 102 25 39
32 45 42 45 75 1 30 -3 37 -18 37 -10 0 -26 7 -34 16 -14 13 -14 17 -2 25 10
6 10 9 2 9 -7 0 -12 10 -10 23 1 14 -3 22 -13 22 -10 0 -15 -10 -15 -27 1 -22
-4 -28 -20 -28 -16 0 -17 2 -5 10 12 8 11 10 -7 10 -13 0 -23 5 -23 10 0 6 9
10 20 10 11 0 20 4 20 9 0 13 -55 51 -81 56 -12 2 -37 13 -56 25 -37 22 -43
24 -43 13z m57 -87 c4 -8 19 -16 32 -18 14 -1 26 -9 29 -17 3 -9 -2 -11 -17
-6 -14 4 -21 2 -21 -7 0 -9 -3 -10 -8 -2 -4 6 -22 15 -39 19 -18 3 -33 11 -33
16 0 6 5 7 10 4 6 -4 18 -4 28 0 14 5 14 7 2 15 -9 6 -10 10 -3 10 7 0 16 -6
20 -14z m-519 -226 c-14 -22 -24 -19 -15 5 4 8 11 15 17 15 6 0 6 -7 -2 -20z"/>
<path d="M2415 3620 c3 -5 -2 -10 -12 -11 -10 -1 -4 -6 15 -11 17 -6 32 -17
32 -25 0 -22 30 -27 44 -8 9 13 15 15 20 6 5 -7 13 -8 25 -1 10 5 22 6 26 2 4
-4 4 4 0 17 -5 16 -4 21 4 17 6 -4 11 -3 11 2 0 14 -83 21 -92 8 -5 -7 -8 -7
-8 2 0 7 -14 12 -36 12 -21 0 -33 -4 -29 -10z"/>
<path d="M3340 3612 c-16 -7 -21 -52 -6 -51 5 0 12 -3 15 -8 3 -4 20 -13 38
-19 28 -10 38 -9 79 12 26 13 55 24 65 24 10 0 21 5 24 10 3 6 -3 10 -15 10
-12 0 -18 5 -15 10 3 6 0 10 -7 11 -7 0 -23 2 -34 5 -12 2 -27 -2 -32 -9 -12
-14 -105 -10 -96 4 6 10 5 10 -16 1z"/>
<path d="M3290 3590 c0 -11 5 -20 10 -20 6 0 10 9 10 20 0 11 -4 20 -10 20 -5
0 -10 -9 -10 -20z"/>
<path d="M4130 3500 c0 -5 5 -10 11 -10 5 0 7 5 4 10 -3 6 -8 10 -11 10 -2 0
-4 -4 -4 -10z"/>
<path d="M1841 3454 c0 -11 3 -14 6 -6 3 7 2 16 -1 19 -3 4 -6 -2 -5 -13z"/>
<path d="M1855 3368 c1 -12 8 -24 15 -26 9 -3 11 1 7 12 -4 10 -7 22 -7 27 0
5 -4 9 -8 9 -5 0 -8 -10 -7 -22z"/>
<path d="M1830 3310 c0 -6 6 -13 14 -16 8 -3 11 -15 8 -30 -2 -14 0 -24 8 -24
7 0 9 8 5 19 -4 13 -1 21 9 23 20 4 7 23 -21 32 -14 5 -23 3 -23 -4z"/>
<path d="M1880 3224 c0 -8 5 -12 10 -9 6 3 10 10 10 16 0 5 -4 9 -10 9 -5 0
-10 -7 -10 -16z"/>
<path d="M1862 3175 c0 -16 2 -22 5 -12 2 9 2 23 0 30 -3 6 -5 -1 -5 -18z"/>
<path d="M4069 3107 c-5 -34 -2 -40 19 -48 30 -12 41 -11 22 1 -8 5 -19 26
-25 47 l-11 38 -5 -38z"/>
<path d="M1842 3104 c-17 -18 -15 -24 7 -24 25 0 32 12 17 26 -9 8 -15 7 -24
-2z"/>
<path d="M2738 3047 c-33 -13 -37 -43 -8 -52 11 -3 20 -12 20 -20 0 -7 7 -15
15 -19 21 -8 19 -26 -4 -26 -18 0 -26 -19 -34 -85 -2 -22 15 -25 66 -11 22 5
27 4 21 -6 -6 -10 -4 -10 9 1 14 11 23 11 58 -3 33 -13 44 -14 56 -4 12 10 17
9 24 -5 12 -21 33 -22 49 -2 7 8 16 12 21 9 5 -3 9 0 9 6 0 6 5 8 12 4 8 -5 9
4 5 32 -4 21 -7 53 -7 69 0 21 -3 26 -9 16 -5 -7 -11 -9 -14 -5 -3 5 1 14 8
21 11 10 15 10 19 0 3 -9 7 -8 16 3 11 15 11 9 -7 -53 -2 -9 1 -33 7 -53 12
-35 12 -35 27 -15 8 12 19 21 26 21 8 0 8 -3 -1 -12 -7 -7 -12 -19 -12 -27 0
-9 6 -7 20 9 24 27 26 50 5 50 -8 0 -15 5 -15 10 0 6 -9 10 -20 10 -15 0 -20
7 -20 24 0 23 3 25 38 20 29 -3 47 1 72 18 46 32 47 43 3 60 -80 32 -110 32
-161 -1 -70 -44 -137 -45 -197 -3 -49 34 -55 36 -97 19z m369 -67 c-1 -12 -5
-16 -10 -11 -5 5 -6 14 -3 20 11 16 15 13 13 -9z"/>
<path d="M2573 2836 c3 -8 1 -17 -6 -20 -7 -2 -2 -5 11 -5 13 -1 20 3 17 9 -4
6 5 10 21 10 34 0 29 5 -15 14 -26 5 -32 3 -28 -8z"/>
<path d="M3140 2830 c-8 -5 -12 -12 -9 -15 8 -8 39 5 39 16 0 11 -11 11 -30
-1z"/>
<path d="M1961 2794 c0 -11 3 -14 6 -6 3 7 2 16 -1 19 -3 4 -6 -2 -5 -13z"/>
<path d="M2568 2783 c-14 -3 -18 -15 -18 -54 0 -48 -14 -67 -23 -31 -4 13 -5
11 -6 -5 -1 -13 -7 -23 -16 -23 -8 0 -15 -4 -15 -10 0 -5 -6 -10 -14 -10 -17
0 -29 -44 -21 -71 5 -14 13 -18 28 -15 12 3 16 3 10 0 -7 -3 -13 -12 -13 -19
0 -8 -8 -19 -19 -24 -29 -16 -32 -37 -5 -39 19 -1 24 3 24 22 0 16 7 27 20 31
11 3 20 11 20 16 0 5 20 30 45 55 l45 45 56 -17 c32 -9 71 -14 92 -10 21 3 55
8 77 12 22 3 45 6 50 5 6 -1 55 -4 110 -6 55 -2 132 -10 170 -19 49 -10 83
-12 115 -6 68 14 81 12 87 -10 3 -11 14 -20 24 -20 24 0 61 -58 56 -87 -3 -15
2 -24 14 -28 25 -8 24 -36 -1 -42 -11 -3 -20 -8 -20 -12 1 -11 25 -36 53 -54
30 -20 35 -37 10 -37 -15 0 -14 -2 3 -14 16 -12 16 -15 4 -20 -8 -3 -28 -10
-43 -16 -16 -5 -27 -16 -24 -23 6 -16 -32 -69 -44 -62 -5 4 -9 1 -9 -5 0 -7
-8 -9 -19 -5 -14 4 -20 0 -24 -17 -5 -18 -9 -20 -19 -10 -17 17 -27 15 -21 -6
2 -10 -3 -25 -13 -33 -15 -13 -16 -12 -11 11 4 14 4 19 1 13 -9 -19 -34 -16
-35 5 -1 11 -4 8 -8 -8 -8 -28 -41 -41 -41 -16 0 9 -6 16 -12 16 -9 0 -8 4 2
10 21 14 3 12 -23 -1 l-21 -12 23 -9 c13 -5 22 -11 19 -13 -9 -9 -69 21 -61
30 5 5 -4 2 -18 -7 -25 -16 -79 -14 -79 3 0 5 -7 9 -15 9 -9 0 -15 7 -13 16 5
27 -18 27 -30 0 -10 -22 -16 -24 -61 -21 -40 3 -51 1 -51 -11 0 -8 -3 -14 -8
-14 -10 0 -37 43 -34 55 1 6 -6 -1 -16 -14 -18 -22 -20 -23 -29 -6 -7 12 -13
14 -17 6 -10 -16 -29 -13 -23 4 4 8 2 17 -2 20 -5 2 -11 -4 -14 -15 -7 -29
-34 -35 -57 -15 -11 10 -20 14 -20 9 0 -5 -5 -1 -11 9 -13 22 -44 23 -35 1 11
-29 -17 -9 -33 24 -9 17 -22 32 -28 32 -7 0 -13 4 -13 8 0 5 -11 14 -25 20
-14 6 -34 32 -46 58 -12 25 -28 48 -36 51 -17 7 -17 23 1 23 7 0 27 -7 42 -15
27 -14 29 -13 37 7 4 13 5 33 2 45 -3 13 -1 32 5 43 8 16 8 20 -4 20 -8 0 -16
-5 -18 -11 -6 -18 -75 0 -81 21 -3 11 -18 20 -41 24 -30 6 -36 11 -31 25 7 22
-18 31 -59 24 -20 -4 -26 -11 -26 -31 0 -37 -8 -23 -13 23 -4 36 -7 40 -28 36
-13 -1 -27 -8 -30 -13 -4 -6 -12 -7 -18 -4 -6 4 -18 0 -27 -8 -8 -9 -21 -16
-27 -16 -7 0 -6 4 3 10 8 5 11 12 7 16 -4 4 -14 1 -23 -7 -13 -14 -13 -23 2
-90 9 -41 23 -83 30 -94 8 -11 15 -40 15 -65 l2 -45 7 35 7 35 2 -35 c2 -19 5
-29 8 -22 2 6 9 12 14 12 14 0 11 -38 -3 -43 -7 -2 -10 -8 -6 -12 4 -4 14 -2
22 4 8 7 20 10 27 6 8 -6 8 -9 -1 -15 -15 -9 -4 -30 16 -30 8 0 14 -7 14 -15
0 -8 -4 -15 -10 -15 -14 0 -13 -18 2 -34 10 -10 17 -10 30 -2 14 8 22 6 38
-11 11 -12 20 -29 20 -38 0 -8 5 -15 12 -15 9 0 9 -3 0 -12 -19 -19 -14 -38
12 -38 13 0 31 -11 41 -24 10 -13 25 -22 32 -19 9 3 30 -12 53 -36 34 -36 36
-42 22 -51 -13 -7 -6 -10 28 -10 35 0 42 -3 30 -11 -8 -6 -11 -12 -5 -15 30
-13 37 -23 30 -40 -7 -18 -8 -18 -15 1 -7 16 -9 17 -9 3 -1 -18 24 -48 40 -48
5 0 9 8 10 18 0 13 2 12 9 -5 5 -13 15 -23 22 -24 7 0 4 -4 -7 -9 -18 -7 -19
-8 -2 -15 9 -4 17 -13 17 -20 0 -7 19 -15 48 -19 36 -5 58 -15 86 -41 21 -19
46 -35 55 -35 9 0 24 -9 34 -20 11 -13 29 -20 53 -20 19 0 43 -7 52 -16 18
-19 83 -14 109 7 17 15 80 39 103 39 8 0 23 14 32 30 l17 30 -46 0 c-38 0 -43
2 -34 14 18 21 50 26 59 10 7 -12 21 -8 80 22 40 20 72 42 72 49 0 7 10 16 21
21 21 10 21 11 4 28 -18 17 -17 18 26 16 71 -4 83 -1 95 24 15 32 0 56 -34 57
-29 1 -24 3 20 13 18 4 27 12 26 24 -3 35 2 52 16 52 7 0 16 -9 19 -20 6 -24
28 -18 69 19 32 28 35 48 11 67 -17 12 -16 13 3 8 25 -6 38 16 35 58 -2 22 1
27 13 22 11 -4 16 0 16 14 0 11 12 27 26 37 19 12 23 19 14 25 -10 6 -9 10 2
16 22 13 38 48 38 82 0 17 6 32 14 35 11 4 13 22 11 74 -2 37 -4 69 -4 71 -4
11 -41 -23 -41 -37 0 -21 -19 -31 -56 -31 -13 0 -24 -6 -24 -12 -1 -8 -6 -6
-14 5 -11 14 -18 16 -41 7 -32 -12 -61 -6 -69 15 -3 8 -13 15 -23 15 -15 0
-15 2 3 15 18 14 18 16 2 29 -10 7 -21 28 -24 47 -4 19 -13 44 -21 57 -7 12
-11 27 -8 33 4 5 -5 21 -19 34 -18 17 -26 20 -26 10 0 -8 -6 -15 -12 -15 -24
0 -40 17 -38 41 3 37 1 53 -7 45 -4 -4 -8 -17 -8 -29 0 -13 -5 -21 -14 -19 -7
2 -22 -5 -32 -14 -15 -14 -31 -16 -86 -11 -38 4 -88 14 -113 23 -31 11 -57 14
-85 9 -62 -12 -106 -10 -168 5 -47 11 -66 11 -105 1 -26 -7 -69 -13 -97 -14
-48 -2 -50 -1 -55 28 -5 30 -19 37 -52 28z m-118 -353 c0 -5 -4 -10 -10 -10
-5 0 -10 5 -10 10 0 6 5 10 10 10 6 0 10 -4 10 -10z m1322 -32 c-8 -8 -9 -4
-5 13 4 13 8 18 11 10 2 -7 -1 -18 -6 -23z m-122 -288 c0 -5 -5 -10 -11 -10
-5 0 -7 5 -4 10 3 6 8 10 11 10 2 0 4 -4 4 -10z"/>
<path d="M3301 2736 c0 -11 3 -15 6 -8 2 6 13 12 24 12 10 0 19 4 19 9 0 5
-11 9 -25 9 -19 0 -25 -6 -24 -22z"/>
<path d="M3415 2740 c3 -5 8 -10 11 -10 2 0 4 5 4 10 0 6 -5 10 -11 10 -5 0
-7 -4 -4 -10z"/>
<path d="M2008 2695 c2 -19 8 -35 13 -35 5 0 6 12 3 28 -10 41 -21 46 -16 7z"/>
<path d="M2947 2534 c-3 -4 -17 -8 -31 -9 -20 -3 -71 -13 -96 -20 -21 -6 -39
-19 -44 -31 -19 -51 305 -81 392 -36 17 9 32 19 32 23 0 36 -225 100 -253 73z"/>
<path d="M3826 2524 c-2 -6 0 -16 6 -22 8 -8 15 -7 24 6 8 9 14 20 14 24 0 12
-39 5 -44 -8z"/>
<path d="M3400 2520 c0 -5 5 -10 11 -10 5 0 7 5 4 10 -3 6 -8 10 -11 10 -2 0
-4 -4 -4 -10z"/>
<path d="M2735 2480 c-16 -7 -17 -9 -3 -9 9 -1 20 4 23 9 7 11 7 11 -20 0z"/>
<path d="M2550 2415 c-1 -5 -2 -14 -1 -19 1 -4 -4 -16 -11 -25 -12 -14 -11
-15 5 -2 12 9 17 10 17 2 0 -7 5 -9 11 -5 7 4 8 9 1 13 -5 3 -12 15 -15 26 -2
11 -6 16 -7 10z"/>
<path d="M2037 2316 c-14 -13 -33 -38 -43 -57 -29 -57 -129 -182 -175 -219
-82 -66 -114 -87 -184 -119 -39 -18 -105 -50 -148 -72 -42 -22 -152 -65 -245
-95 -92 -30 -232 -82 -312 -114 -207 -84 -301 -120 -312 -120 -6 0 -24 -6 -41
-14 -18 -8 -59 -23 -92 -34 -33 -11 -154 -56 -270 -100 l-210 -80 -3 -646 -2
-646 1435 0 c1360 0 1435 1 1436 18 0 10 3 12 6 4 7 -19 23 -4 23 24 0 18 6
24 23 25 17 1 18 2 4 6 -9 2 -15 8 -12 13 3 5 13 6 23 3 15 -6 15 -4 -2 15
-15 17 -16 22 -5 22 8 0 20 -5 27 -12 7 -7 12 -8 12 -3 0 4 -30 39 -66 77 -37
38 -64 71 -61 75 7 6 57 -40 192 -175 62 -63 99 -93 111 -90 14 2 -14 36 -111
134 -138 138 -189 193 -183 199 2 2 39 -30 83 -71 43 -41 82 -74 86 -74 4 0
10 -7 13 -16 3 -8 11 -12 16 -9 6 4 9 2 8 -2 -2 -5 28 -44 65 -86 l69 -76 74
0 c52 0 74 4 74 12 0 45 -113 337 -169 437 -70 125 -100 321 -56 370 8 9 15
23 15 30 0 9 -7 6 -20 -8 -23 -24 -105 -82 -117 -82 -4 0 -25 -16 -45 -35 -21
-18 -38 -30 -38 -25 0 15 85 100 100 100 8 0 39 18 68 40 29 22 56 40 60 40 4
0 21 17 37 37 17 20 45 52 64 70 l33 33 -43 48 c-23 26 -74 79 -114 117 l-71
71 -60 -1 c-60 0 -63 -1 -125 -56 -53 -46 -180 -173 -261 -260 -25 -26 -23
-34 14 -61 62 -45 175 -164 194 -203 37 -78 18 -169 -61 -295 -23 -37 -126
-239 -142 -279 -8 -22 -15 -9 -53 105 -23 71 -80 234 -127 363 -46 129 -113
320 -150 425 -36 105 -94 259 -128 341 -94 226 -119 312 -135 474 -15 142 -1
270 44 402 20 59 36 112 36 118 0 18 -26 12 -53 -13z m903 -1090 c0 -2 -8 -10
-17 -17 -16 -13 -17 -12 -4 4 13 16 21 21 21 13z m247 -132 c-3 -3 -12 -4 -19
-1 -8 3 -5 6 6 6 11 1 17 -2 13 -5z m-37 -14 c0 -5 -4 -10 -10 -10 -5 0 -10 5
-10 10 0 6 5 10 10 10 6 0 10 -4 10 -10z m-30 -8 c0 -4 -12 -13 -27 -19 -35
-16 -121 -101 -173 -172 -47 -64 -54 -49 -9 20 56 87 209 213 209 171z m86
-20 c-3 -5 -24 -17 -48 -28 -58 -26 -146 -104 -237 -209 l-43 -50 20 40 c42
85 170 199 267 238 48 19 47 19 41 9z m-62 -91 c-21 -15 -48 -39 -60 -52 -11
-13 -58 -57 -103 -98 -81 -73 -82 -73 -55 -29 15 25 45 56 68 71 23 14 61 46
86 71 24 25 50 46 57 46 7 0 13 5 13 10 0 6 7 10 17 10 10 0 1 -11 -23 -29z
m-229 -1 c-3 -5 -11 -10 -16 -10 -6 0 -7 5 -4 10 3 6 11 10 16 10 6 0 7 -4 4
-10z m155 -200 c-13 -24 -41 -40 -71 -40 -28 0 -18 10 36 39 48 26 48 26 35 1z
m-58 -84 c4 -6 2 -14 -5 -18 -7 -5 -2 -8 13 -8 24 0 25 -3 22 -40 -3 -25 0
-40 7 -40 6 0 11 -19 11 -47 0 -25 6 -54 13 -62 24 -30 37 -69 24 -74 -9 -3
-8 -9 3 -22 14 -17 13 -18 -4 -12 -17 7 -17 6 -5 -10 8 -10 16 -20 19 -23 15
-15 50 -71 50 -79 0 -6 -46 34 -102 88 -57 54 -130 123 -163 154 -33 31 -57
57 -53 57 4 0 13 -6 20 -12 23 -22 77 -58 86 -58 4 0 21 -13 37 -30 16 -16 31
-28 34 -25 8 8 -51 65 -68 65 -13 0 -13 2 -2 9 8 5 10 14 6 21 -5 8 -4 11 2 7
6 -4 14 5 18 20 5 20 2 31 -11 40 -18 13 -25 54 -11 64 5 3 1 13 -7 22 -10 10
-12 18 -6 22 5 3 10 1 10 -4 0 -6 4 -11 10 -11 5 0 7 7 3 16 -5 13 -2 15 18 9
13 -4 27 -13 31 -19z m-43 -296 c103 -89 181 -170 203 -214 17 -33 7 -25 -64
48 -45 48 -121 123 -168 167 -96 90 -76 89 29 -1z m216 20 c3 -5 2 -10 -4 -10
-5 0 -13 5 -16 10 -3 6 -2 10 4 10 5 0 13 -4 16 -10z m-129 -177 c101 -99 174
-196 160 -210 -3 -4 -6 -2 -6 3 0 14 -37 54 -196 216 -79 80 -144 149 -144
153 0 13 76 -54 186 -162z"/>
<path d="M2985 480 c3 -5 8 -10 11 -10 2 0 4 5 4 10 0 6 -5 10 -11 10 -5 0 -7
-4 -4 -10z"/>
<path d="M3811 2290 c5 -22 18 -64 29 -93 13 -31 25 -101 32 -177 18 -199 -9
-339 -142 -734 -27 -82 -50 -155 -50 -162 0 -8 -20 -97 -45 -199 -64 -262
-205 -892 -205 -917 0 -5 578 -8 1285 -8 l1285 0 0 630 0 630 -54 24 c-30 13
-130 51 -223 84 -316 113 -548 199 -768 285 -121 47 -251 95 -290 107 -118 36
-257 91 -295 116 -20 13 -63 34 -95 47 -137 54 -273 167 -353 292 -56 87 -81
115 -103 115 -15 0 -16 -5 -8 -40z"/>
<path d="M2141 2254 c0 -11 3 -14 6 -6 3 7 2 16 -1 19 -3 4 -6 -2 -5 -13z"/>
<path d="M3520 1910 c0 -5 5 -10 10 -10 6 0 10 5 10 10 0 6 -4 10 -10 10 -5 0
-10 -4 -10 -10z"/>
<path d="M2791 1454 c0 -11 3 -14 6 -6 3 7 2 16 -1 19 -3 4 -6 -2 -5 -13z"/>
<path d="M2830 1407 c9 -10 81 -57 86 -57 3 0 4 10 2 22 -2 13 -11 22 -23 23
-11 1 -31 5 -45 10 -14 4 -23 5 -20 2z"/>
<path d="M3040 1385 c0 -9 5 -15 11 -13 6 2 11 8 11 13 0 5 -5 11 -11 13 -6 2
-11 -4 -11 -13z"/>
<path d="M2949 1375 c-1 -3 -2 -8 -3 -12 -1 -5 -5 -13 -9 -20 -5 -7 0 -16 12
-22 26 -14 61 -14 61 0 0 7 -10 9 -25 5 -14 -4 -25 -2 -25 4 0 5 19 13 43 17
l42 6 -30 13 c-31 13 -64 18 -66 9z"/>
<path d="M2980 102 c0 -5 7 -15 15 -22 8 -7 15 -9 15 -6 0 4 -7 14 -15 22 -8
9 -15 11 -15 6z"/>
<path d="M2960 76 c0 -8 5 -18 10 -21 6 -3 10 1 10 9 0 8 -4 18 -10 21 -5 3
-10 -1 -10 -9z"/>
<path d="M3021 57 c2 -1 13 -9 24 -17 19 -14 19 -14 6 3 -7 9 -18 17 -24 17
-6 0 -8 -1 -6 -3z"/>
</g>
</svg>
