<svg xmlns="http://www.w3.org/2000/svg" version="1.1" xmlns:xlink="http://www.w3.org/1999/xlink" xmlns:svgjs="http://svgjs.dev/svgjs" width="1500" height="1682" viewBox="0 0 1500 1682"><g transform="matrix(1,0,0,1,-2.33610283507403,0)"><svg viewBox="0 0 321 360" data-background-color="#ffffff" preserveAspectRatio="xMidYMid meet" height="1682" width="1500" xmlns="http://www.w3.org/2000/svg" xmlns:xlink="http://www.w3.org/1999/xlink"><g id="tight-bounds" transform="matrix(1,0,0,1,0.4999260067058344,0)"><svg viewBox="0 0 320 360" height="360" width="320"><g><svg></svg></g><g><svg viewBox="0 0 320 360" height="360" width="320"><g><path transform="translate(-17.30355,3.60951) scale(3.54253,3.54253)" d="M50 95v0c-2.2 0-4.1-1.4-4.7-3.5-0.3-1.1-1.5-1.7-2.5-1.4-0.4 0.1-0.8 0.4-1.1 0.8-1.6 2.2-4.6 2.8-6.9 1.2-1.4-0.9-2.2-2.5-2.1-4.2 0-1.1-0.9-2.1-2-2.1-0.5 0-0.9 0.1-1.3 0.4-2.2 1.6-5.3 1.2-6.9-1-1-1.3-1.3-3-0.7-4.6 0.4-1.1-0.2-2.2-1.3-2.6-0.4-0.1-0.9-0.1-1.3 0-2.6 0.9-5.4-0.5-6.3-3.1-0.5-1.5-0.3-3.3 0.7-4.6 0.7-0.9 0.5-2.2-0.4-2.8-0.4-0.3-0.8-0.4-1.3-0.4-2.7 0.1-5-2.1-5-4.8 0-1.7 0.8-3.2 2.1-4.2 0.9-0.6 1.1-1.9 0.5-2.8-0.3-0.4-0.6-0.6-1.1-0.8-2.6-0.8-4.1-3.6-3.3-6.2 0.5-1.6 1.7-2.8 3.3-3.3 1.1-0.3 1.7-1.5 1.4-2.5-0.1-0.4-0.4-0.8-0.8-1.1-2.2-1.6-2.8-4.6-1.2-6.9 0.9-1.4 2.5-2.2 4.2-2.1 1.1 0 2.1-0.9 2.1-2 0-0.5-0.1-0.9-0.4-1.3-1.6-2.2-1.2-5.3 1-6.9 1.3-1 3-1.3 4.6-0.7 1.1 0.4 2.2-0.2 2.6-1.3 0.1-0.4 0.1-0.9 0-1.3-0.9-2.6 0.5-5.4 3.1-6.3 1.5-0.5 3.3-0.3 4.6 0.7 0.9 0.7 2.2 0.5 2.8-0.4 0.3-0.4 0.4-0.8 0.4-1.3-0.1-2.7 2.1-5 4.8-5 1.7 0 3.2 0.8 4.2 2.1 0.6 0.9 1.9 1.1 2.8 0.5 0.4-0.3 0.6-0.6 0.8-1.1 0.8-2.6 3.6-4.1 6.2-3.3 1.6 0.5 2.8 1.7 3.3 3.3v0c0.2 0.7 0.8 1.3 1.6 1.4 0.8 0.1 1.5-0.2 2-0.8 1.6-2.2 4.6-2.8 6.9-1.2 1.4 0.9 2.2 2.5 2.1 4.2 0 1.1 0.9 2.1 2 2.1 0.5 0 0.9-0.1 1.3-0.4 2.2-1.6 5.3-1.2 6.9 1 1 1.3 1.3 3 0.7 4.6-0.4 1.1 0.2 2.2 1.3 2.6 0.4 0.1 0.9 0.1 1.3 0 2.6-0.9 5.4 0.5 6.3 3.1 0.5 1.5 0.3 3.3-0.7 4.6-0.7 0.9-0.5 2.2 0.4 2.8 0.4 0.3 0.8 0.4 1.3 0.4 2.7-0.1 5 2.1 5 4.8 0 1.7-0.8 3.2-2.1 4.2-0.7 0.4-1 1.2-0.9 2 0.1 0.8 0.7 1.4 1.4 1.6 2.6 0.8 4.1 3.6 3.3 6.2-0.5 1.6-1.7 2.8-3.3 3.3-1.1 0.3-1.7 1.5-1.4 2.5 0.1 0.4 0.4 0.8 0.8 1.1 2.2 1.6 2.8 4.6 1.2 6.9-0.9 1.4-2.5 2.2-4.2 2.1-0.8 0-1.5 0.4-1.9 1.1-0.4 0.7-0.3 1.5 0.2 2.2 1.6 2.2 1.2 5.3-1 6.9-1.3 1-3 1.3-4.6 0.7-1.1-0.4-2.2 0.2-2.6 1.3-0.1 0.4-0.1 0.9 0 1.3 0.9 2.6-0.5 5.4-3.1 6.3-1.5 0.5-3.3 0.3-4.6-0.7-0.9-0.7-2.2-0.5-2.8 0.4-0.3 0.4-0.4 0.8-0.4 1.3 0.1 2.7-2.1 5-4.8 5-1.7 0-3.2-0.8-4.2-2.1-0.4-0.6-1.2-1-2-0.8-0.8 0.1-1.4 0.7-1.6 1.4-0.6 2.1-2.5 3.5-4.7 3.5zM43.3 87.2c0.3 0 0.5 0 0.8 0.1 1.9 0.3 3.4 1.6 3.9 3.4 0.3 1.1 1.5 1.7 2.5 1.3 0.6-0.2 1.1-0.7 1.3-1.3 0.8-2.6 3.6-4.1 6.2-3.3 1 0.3 2 1 2.6 1.9 0.7 0.9 1.9 1.1 2.9 0.4 0.5-0.4 0.8-1 0.8-1.6-0.1-2.7 2.1-5 4.8-5 1.1 0 2.2 0.3 3.1 1 0.9 0.7 2.2 0.5 2.8-0.4 0.4-0.5 0.5-1.3 0.3-1.9-0.9-2.6 0.4-5.4 3-6.3 1.1-0.4 2.2-0.4 3.3 0 1.1 0.4 2.2-0.2 2.6-1.3 0.2-0.6 0.1-1.4-0.3-1.9-1.6-2.2-1.2-5.3 1-6.9 0.9-0.7 2-1 3.1-1 1.1 0 2-0.9 2.1-2 0-0.7-0.3-1.3-0.9-1.7-2.2-1.6-2.8-4.6-1.2-6.9 0.6-0.9 1.5-1.6 2.6-1.9 1.1-0.3 1.7-1.5 1.3-2.5-0.2-0.6-0.7-1.1-1.3-1.3-2.6-0.8-4.1-3.6-3.3-6.2 0.3-1 1-2 1.9-2.6 0.9-0.7 1.1-2 0.4-2.9-0.4-0.5-1-0.8-1.6-0.8-2.7 0.1-5-2.1-5-4.8 0-1.1 0.3-2.2 1-3.1 0.7-0.9 0.5-2.2-0.4-2.8-0.5-0.4-1.3-0.5-1.9-0.3-2.6 0.9-5.4-0.4-6.3-3-0.4-1.1-0.4-2.2 0-3.3 0.4-1.1-0.2-2.2-1.3-2.6-0.6-0.2-1.4-0.1-1.9 0.3-2.2 1.6-5.3 1.2-6.9-1-0.7-0.9-1-2-1-3.1 0-1.1-0.9-2-2.1-2-0.6 0-1.3 0.3-1.6 0.8-1.6 2.2-4.6 2.8-6.9 1.2-0.9-0.6-1.6-1.5-1.9-2.6v0c-0.3-1.1-1.5-1.7-2.5-1.3-0.6 0.2-1.1 0.7-1.3 1.3-0.8 2.6-3.6 4.1-6.2 3.3-1-0.3-2-1-2.6-1.9-0.7-0.9-1.9-1.1-2.9-0.4-0.5 0.4-0.8 1-0.8 1.6 0.1 2.7-2.1 5-4.8 5-1.1 0-2.2-0.3-3.1-1-0.9-0.7-2.2-0.5-2.8 0.4-0.4 0.5-0.5 1.3-0.3 1.9 0.9 2.6-0.4 5.4-3 6.3-1.1 0.4-2.2 0.4-3.3 0-1.1-0.4-2.2 0.2-2.6 1.3-0.2 0.6-0.1 1.4 0.3 1.9 1.6 2.2 1.2 5.3-1 6.9-0.9 0.7-2 1-3.1 1-1.1 0-2 0.9-2 2.1 0 0.6 0.3 1.3 0.8 1.6 2.2 1.6 2.8 4.6 1.2 6.9-0.6 0.9-1.5 1.6-2.6 1.9-1.1 0.3-1.7 1.5-1.3 2.5 0.2 0.6 0.7 1.1 1.3 1.3 2.6 0.8 4.1 3.6 3.3 6.2-0.3 1-1 2-1.9 2.6-0.9 0.7-1.1 1.9-0.4 2.9 0.4 0.5 1 0.8 1.6 0.8 2.7-0.1 5 2.1 5 4.8 0 1.1-0.3 2.2-1 3.1-0.7 0.9-0.5 2.2 0.4 2.8 0.5 0.4 1.3 0.5 1.9 0.3 2.6-0.9 5.4 0.4 6.3 3 0.4 1.1 0.4 2.2 0 3.3-0.4 1.1 0.2 2.2 1.3 2.6 0.6 0.2 1.4 0.1 1.9-0.3 2.2-1.6 5.3-1.2 6.9 1 0.7 0.9 1 2 1 3.1 0 1.1 0.9 2 2 2.1 0.7 0 1.3-0.3 1.7-0.9 1-1.3 2.5-2.1 4.1-2.1z" fill="#3d9970" fill-rule="nonzero" stroke="none" stroke-width="1" stroke-linecap="butt" stroke-linejoin="miter" stroke-miterlimit="10" stroke-dasharray="" stroke-dashoffset="0" font-family="none" font-weight="none" font-size="none" text-anchor="none" style="mix-blend-mode: normal" data-fill-palette-color="tertiary"></path></g><g transform="matrix(1,0,0,1,56,128.77413111066733)"><svg viewBox="0 0 208 102.45173777866535" height="102.45173777866535" width="208"><g><svg viewBox="0 0 209.03999999999996 102.96399646755866" height="102.45173777866535" width="208"><g><rect width="209.03999999999996" height="3.1536512206234675" x="0" y="56.58448610858144" fill="#000000" opacity="1" stroke-width="0" stroke="transparent" fill-opacity="1" class="rect-yte-0" data-fill-palette-color="secondary" rx="1%" id="yte-0" data-palette-color="#000000"></rect></g><g transform="matrix(1,0,0,1,0.5199999999999818,67.9937687968056)"><svg viewBox="0 0 208 34.97022767075306" height="34.97022767075306" width="208"><g id="textblocktransform"><svg viewBox="0 0 208 34.97022767075306" height="34.97022767075306" width="208" id="textblock"><g><svg viewBox="0 0 208 34.97022767075306" height="34.97022767075306" width="208"><g transform="matrix(1,0,0,1,0,0)"><svg width="208" viewBox="1.75 -37.65 228.38 38.4" height="34.97022767075306" data-palette-color="url(#d683fd3b-4f3c-4521-b8f2-d73f93ede406)"></svg></g></svg></g></svg></g></svg></g><g transform="matrix(1,0,0,1,69.17157242809546,0)"><svg viewBox="0 0 70.69685514380906 48.32885464098074" height="48.32885464098074" width="70.69685514380906"><g><svg xmlns="http://www.w3.org/2000/svg" xmlns:xlink="http://www.w3.org/1999/xlink" xmlns:a="http://ns.adobe.com/AdobeSVGViewerExtensions/3.0/" version="1.1" x="8" y="0" viewBox="3.253 5.760999999999999 122.355 108.11000000000001" enable-background="new 28.653 18.739 100 100" xml:space="preserve" id="icon-0" width="54.69685514380906" height="48.32885464098074" class="icon-icon-0" data-fill-palette-color="accent"><path d="M85.378 41.657C85.629 40.574 85.795 39.491 85.795 38.408 85.795 37.824 85.795 37.241 85.711 36.659 85.378 34.161 84.297 31.994 82.38 30.079 80.048 27.747 77.3 26.582 74.051 26.582S67.971 27.747 65.722 30.079C63.806 31.995 62.723 34.161 62.391 36.659 62.307 37.242 62.307 37.824 62.307 38.408 62.307 41.657 63.474 44.405 65.723 46.736 67.973 48.986 70.804 50.151 74.052 50.151S80.049 48.985 82.381 46.736C83.879 45.239 84.879 43.572 85.378 41.657" fill="#b10dc9" data-fill-palette-color="accent"></path><path d="M125.608 48.153L118.694 54.985V63.812L87.795 43.156 78.964 61.729H62.557V70.976H86.129L92.626 58.064C93.208 58.481 93.707 58.897 94.124 59.398L88.46 70.725 102.119 77.889 89.96 78.055V113.871H104.785V86.886H114.196V107.29H107.366V113.871H125.608V107.29H118.694V86.886H125.608z" fill="#b10dc9" data-fill-palette-color="accent"></path><path d="M88.709 73.641H31.906V79.053H88.709z" fill="#b10dc9" data-fill-palette-color="accent"></path><path d="M90.042 73.391H90.21L89.96 73.306V73.391z" fill="#b10dc9" data-fill-palette-color="accent"></path><polygon points="85.296,113.872 85.296,81.719 31.906,81.719 31.906,113.872 85.296,113.872 " fill="#b10dc9" data-fill-palette-color="accent"></polygon><polygon points="39.985,24.5 31.906,24.5 31.906,70.976 39.985,70.976 39.985,24.5 " fill="#b10dc9" data-fill-palette-color="accent"></polygon><polygon points="45.316,69.143 45.316,70.976 57.393,70.976 57.393,69.143 45.316,69.143 " fill="#b10dc9" data-fill-palette-color="accent"></polygon></svg></g></svg></g><g><rect width="28.923572428095476" height="3.1536512206234675" y="44.17520342035727" x="139.86842757190453" fill="#000000" data-fill-palette-color="secondary"></rect><rect width="28.923572428095476" height="3.1536512206234675" y="44.17520342035727" x="40.247999999999976" fill="#000000" data-fill-palette-color="secondary"></rect></g></svg></g></svg></g></svg></g><defs></defs><mask id="e13ba747-1b09-436c-9744-8436ab0b1bf2"><g id="SvgjsG1312"><svg viewBox="0 0 320 360" height="360" width="320"><g><svg></svg></g><g><svg viewBox="0 0 320 360" height="360" width="320"><g><path transform="translate(-17.30355,3.60951) scale(3.54253,3.54253)" d="M50 95v0c-2.2 0-4.1-1.4-4.7-3.5-0.3-1.1-1.5-1.7-2.5-1.4-0.4 0.1-0.8 0.4-1.1 0.8-1.6 2.2-4.6 2.8-6.9 1.2-1.4-0.9-2.2-2.5-2.1-4.2 0-1.1-0.9-2.1-2-2.1-0.5 0-0.9 0.1-1.3 0.4-2.2 1.6-5.3 1.2-6.9-1-1-1.3-1.3-3-0.7-4.6 0.4-1.1-0.2-2.2-1.3-2.6-0.4-0.1-0.9-0.1-1.3 0-2.6 0.9-5.4-0.5-6.3-3.1-0.5-1.5-0.3-3.3 0.7-4.6 0.7-0.9 0.5-2.2-0.4-2.8-0.4-0.3-0.8-0.4-1.3-0.4-2.7 0.1-5-2.1-5-4.8 0-1.7 0.8-3.2 2.1-4.2 0.9-0.6 1.1-1.9 0.5-2.8-0.3-0.4-0.6-0.6-1.1-0.8-2.6-0.8-4.1-3.6-3.3-6.2 0.5-1.6 1.7-2.8 3.3-3.3 1.1-0.3 1.7-1.5 1.4-2.5-0.1-0.4-0.4-0.8-0.8-1.1-2.2-1.6-2.8-4.6-1.2-6.9 0.9-1.4 2.5-2.2 4.2-2.1 1.1 0 2.1-0.9 2.1-2 0-0.5-0.1-0.9-0.4-1.3-1.6-2.2-1.2-5.3 1-6.9 1.3-1 3-1.3 4.6-0.7 1.1 0.4 2.2-0.2 2.6-1.3 0.1-0.4 0.1-0.9 0-1.3-0.9-2.6 0.5-5.4 3.1-6.3 1.5-0.5 3.3-0.3 4.6 0.7 0.9 0.7 2.2 0.5 2.8-0.4 0.3-0.4 0.4-0.8 0.4-1.3-0.1-2.7 2.1-5 4.8-5 1.7 0 3.2 0.8 4.2 2.1 0.6 0.9 1.9 1.1 2.8 0.5 0.4-0.3 0.6-0.6 0.8-1.1 0.8-2.6 3.6-4.1 6.2-3.3 1.6 0.5 2.8 1.7 3.3 3.3v0c0.2 0.7 0.8 1.3 1.6 1.4 0.8 0.1 1.5-0.2 2-0.8 1.6-2.2 4.6-2.8 6.9-1.2 1.4 0.9 2.2 2.5 2.1 4.2 0 1.1 0.9 2.1 2 2.1 0.5 0 0.9-0.1 1.3-0.4 2.2-1.6 5.3-1.2 6.9 1 1 1.3 1.3 3 0.7 4.6-0.4 1.1 0.2 2.2 1.3 2.6 0.4 0.1 0.9 0.1 1.3 0 2.6-0.9 5.4 0.5 6.3 3.1 0.5 1.5 0.3 3.3-0.7 4.6-0.7 0.9-0.5 2.2 0.4 2.8 0.4 0.3 0.8 0.4 1.3 0.4 2.7-0.1 5 2.1 5 4.8 0 1.7-0.8 3.2-2.1 4.2-0.7 0.4-1 1.2-0.9 2 0.1 0.8 0.7 1.4 1.4 1.6 2.6 0.8 4.1 3.6 3.3 6.2-0.5 1.6-1.7 2.8-3.3 3.3-1.1 0.3-1.7 1.5-1.4 2.5 0.1 0.4 0.4 0.8 0.8 1.1 2.2 1.6 2.8 4.6 1.2 6.9-0.9 1.4-2.5 2.2-4.2 2.1-0.8 0-1.5 0.4-1.9 1.1-0.4 0.7-0.3 1.5 0.2 2.2 1.6 2.2 1.2 5.3-1 6.9-1.3 1-3 1.3-4.6 0.7-1.1-0.4-2.2 0.2-2.6 1.3-0.1 0.4-0.1 0.9 0 1.3 0.9 2.6-0.5 5.4-3.1 6.3-1.5 0.5-3.3 0.3-4.6-0.7-0.9-0.7-2.2-0.5-2.8 0.4-0.3 0.4-0.4 0.8-0.4 1.3 0.1 2.7-2.1 5-4.8 5-1.7 0-3.2-0.8-4.2-2.1-0.4-0.6-1.2-1-2-0.8-0.8 0.1-1.4 0.7-1.6 1.4-0.6 2.1-2.5 3.5-4.7 3.5zM43.3 87.2c0.3 0 0.5 0 0.8 0.1 1.9 0.3 3.4 1.6 3.9 3.4 0.3 1.1 1.5 1.7 2.5 1.3 0.6-0.2 1.1-0.7 1.3-1.3 0.8-2.6 3.6-4.1 6.2-3.3 1 0.3 2 1 2.6 1.9 0.7 0.9 1.9 1.1 2.9 0.4 0.5-0.4 0.8-1 0.8-1.6-0.1-2.7 2.1-5 4.8-5 1.1 0 2.2 0.3 3.1 1 0.9 0.7 2.2 0.5 2.8-0.4 0.4-0.5 0.5-1.3 0.3-1.9-0.9-2.6 0.4-5.4 3-6.3 1.1-0.4 2.2-0.4 3.3 0 1.1 0.4 2.2-0.2 2.6-1.3 0.2-0.6 0.1-1.4-0.3-1.9-1.6-2.2-1.2-5.3 1-6.9 0.9-0.7 2-1 3.1-1 1.1 0 2-0.9 2.1-2 0-0.7-0.3-1.3-0.9-1.7-2.2-1.6-2.8-4.6-1.2-6.9 0.6-0.9 1.5-1.6 2.6-1.9 1.1-0.3 1.7-1.5 1.3-2.5-0.2-0.6-0.7-1.1-1.3-1.3-2.6-0.8-4.1-3.6-3.3-6.2 0.3-1 1-2 1.9-2.6 0.9-0.7 1.1-2 0.4-2.9-0.4-0.5-1-0.8-1.6-0.8-2.7 0.1-5-2.1-5-4.8 0-1.1 0.3-2.2 1-3.1 0.7-0.9 0.5-2.2-0.4-2.8-0.5-0.4-1.3-0.5-1.9-0.3-2.6 0.9-5.4-0.4-6.3-3-0.4-1.1-0.4-2.2 0-3.3 0.4-1.1-0.2-2.2-1.3-2.6-0.6-0.2-1.4-0.1-1.9 0.3-2.2 1.6-5.3 1.2-6.9-1-0.7-0.9-1-2-1-3.1 0-1.1-0.9-2-2.1-2-0.6 0-1.3 0.3-1.6 0.8-1.6 2.2-4.6 2.8-6.9 1.2-0.9-0.6-1.6-1.5-1.9-2.6v0c-0.3-1.1-1.5-1.7-2.5-1.3-0.6 0.2-1.1 0.7-1.3 1.3-0.8 2.6-3.6 4.1-6.2 3.3-1-0.3-2-1-2.6-1.9-0.7-0.9-1.9-1.1-2.9-0.4-0.5 0.4-0.8 1-0.8 1.6 0.1 2.7-2.1 5-4.8 5-1.1 0-2.2-0.3-3.1-1-0.9-0.7-2.2-0.5-2.8 0.4-0.4 0.5-0.5 1.3-0.3 1.9 0.9 2.6-0.4 5.4-3 6.3-1.1 0.4-2.2 0.4-3.3 0-1.1-0.4-2.2 0.2-2.6 1.3-0.2 0.6-0.1 1.4 0.3 1.9 1.6 2.2 1.2 5.3-1 6.9-0.9 0.7-2 1-3.1 1-1.1 0-2 0.9-2 2.1 0 0.6 0.3 1.3 0.8 1.6 2.2 1.6 2.8 4.6 1.2 6.9-0.6 0.9-1.5 1.6-2.6 1.9-1.1 0.3-1.7 1.5-1.3 2.5 0.2 0.6 0.7 1.1 1.3 1.3 2.6 0.8 4.1 3.6 3.3 6.2-0.3 1-1 2-1.9 2.6-0.9 0.7-1.1 1.9-0.4 2.9 0.4 0.5 1 0.8 1.6 0.8 2.7-0.1 5 2.1 5 4.8 0 1.1-0.3 2.2-1 3.1-0.7 0.9-0.5 2.2 0.4 2.8 0.5 0.4 1.3 0.5 1.9 0.3 2.6-0.9 5.4 0.4 6.3 3 0.4 1.1 0.4 2.2 0 3.3-0.4 1.1 0.2 2.2 1.3 2.6 0.6 0.2 1.4 0.1 1.9-0.3 2.2-1.6 5.3-1.2 6.9 1 0.7 0.9 1 2 1 3.1 0 1.1 0.9 2 2 2.1 0.7 0 1.3-0.3 1.7-0.9 1-1.3 2.5-2.1 4.1-2.1z" fill="black" fill-rule="nonzero" stroke="none" stroke-width="1" stroke-linecap="butt" stroke-linejoin="miter" stroke-miterlimit="10" stroke-dasharray="" stroke-dashoffset="0" font-family="none" font-weight="none" font-size="none" text-anchor="none" style="mix-blend-mode: normal"></path></g><g transform="matrix(1,0,0,1,56,128.77413111066733)"><svg viewBox="0 0 208 102.45173777866535" height="102.45173777866535" width="208"><g><svg viewBox="0 0 209.03999999999996 102.96399646755866" height="102.45173777866535" width="208"><g><rect width="209.03999999999996" height="3.1536512206234675" x="0" y="56.58448610858144" fill="black" opacity="1" stroke-width="0" stroke="transparent" fill-opacity="1" class="rect-yte-0" rx="1%" id="SvgjsRect1311" data-palette-color="#000000"></rect></g><g transform="matrix(1,0,0,1,0.5199999999999818,67.9937687968056)"><svg viewBox="0 0 208 34.97022767075306" height="34.97022767075306" width="208"><g id="SvgjsG1310"><svg viewBox="0 0 208 34.97022767075306" height="34.97022767075306" width="208" id="SvgjsSvg1309"><g><svg viewBox="0 0 208 34.97022767075306" height="34.97022767075306" width="208"><g transform="matrix(1,0,0,1,0,0)"><svg width="208" viewBox="1.75 -37.65 228.38 38.4" height="34.97022767075306" data-palette-color="url(#d683fd3b-4f3c-4521-b8f2-d73f93ede406)"><path d="M14.5-35.25Q17.15-35.25 19.18-34.38 21.2-33.5 23.1-31.7L23.1-31.7 20.05-28.05Q18.75-29.25 17.53-29.83 16.3-30.4 14.85-30.4L14.85-30.4Q11.85-30.4 10.15-27.4 8.45-24.4 8.45-17.35L8.45-17.35Q8.45-10.4 10.15-7.38 11.85-4.35 14.95-4.35L14.95-4.35Q16.5-4.35 17.65-4.98 18.8-5.6 20.35-6.9L20.35-6.9 23.4-3.4Q21.8-1.6 19.55-0.43 17.3 0.75 14.5 0.75L14.5 0.75Q8.65 0.75 5.2-3.8 1.75-8.35 1.75-17.35L1.75-17.35Q1.75-23.3 3.4-27.3 5.05-31.3 7.93-33.27 10.8-35.25 14.5-35.25L14.5-35.25ZM39-27.15Q41.85-27.15 43.5-25.1 45.15-23.05 45.15-19.6L45.15-19.6 45.15 0 39 0 39-18.9Q39-20.8 38.47-21.63 37.95-22.45 36.95-22.45L36.95-22.45Q34.85-22.45 32.8-18.5L32.8-18.5 32.8 0 26.65 0 26.65-37 32.8-37.65 32.8-23.3Q34.05-25.25 35.52-26.2 37-27.15 39-27.15L39-27.15ZM67.59-6.4Q67.59-5.1 67.94-4.48 68.3-3.85 69.09-3.45L69.09-3.45 67.84 0.65Q65.8 0.4 64.57-0.45 63.34-1.3 62.74-3.05L62.74-3.05Q60.45 0.75 56.3 0.75L56.3 0.75Q52.99 0.75 51.05-1.48 49.09-3.7 49.09-7.4L49.09-7.4Q49.09-11.7 51.77-13.95 54.45-16.2 59.55-16.2L59.55-16.2 61.59-16.2 61.59-18.05Q61.59-20.55 60.72-21.58 59.84-22.6 57.89-22.6L57.89-22.6Q55.55-22.6 52.05-21.3L52.05-21.3 50.64-25.3Q52.64-26.2 54.8-26.68 56.95-27.15 58.89-27.15L58.89-27.15Q67.59-27.15 67.59-18.35L67.59-18.35 67.59-6.4ZM57.95-3.7Q60.34-3.7 61.59-7L61.59-7 61.59-12.55 60.14-12.55Q57.59-12.55 56.42-11.4 55.24-10.25 55.24-7.85L55.24-7.85Q55.24-5.8 55.95-4.75 56.64-3.7 57.95-3.7L57.95-3.7ZM95.44-26.45L101.14-26.45 96.59 0 89.09 0 86.14-20.85 83.24 0 75.79 0 71.14-26.45 77.09-26.45 79.79-4.6 83.14-26.45 89.39-26.45 92.59-4.6 95.44-26.45ZM128.69-18.3Q132.04-17.55 133.96-15.63 135.89-13.7 135.89-9.9L135.89-9.9Q135.89-4.9 132.51-2.45 129.14 0 123.34 0L123.34 0 114.64 0 114.64-34.55 122.19-34.55Q128.14-34.55 131.39-32.3 134.64-30.05 134.64-25.75L134.64-25.75Q134.64-22.85 133.01-20.95 131.39-19.05 128.69-18.3L128.69-18.3ZM122.84-29.85L120.99-29.85 120.99-20.3 123.14-20.3Q128.19-20.3 128.19-25.2L128.19-25.2Q128.19-27.65 126.91-28.75 125.64-29.85 122.84-29.85L122.84-29.85ZM123.39-4.8Q126.29-4.8 127.79-6.03 129.29-7.25 129.29-10.15L129.29-10.15Q129.29-13.05 127.89-14.43 126.49-15.8 123.54-15.8L123.54-15.8 120.99-15.8 120.99-4.8 123.39-4.8ZM158.74-13.85Q158.74-13.4 158.59-11.3L158.59-11.3 144.94-11.3Q145.14-7.2 146.36-5.58 147.59-3.95 149.84-3.95L149.84-3.95Q151.39-3.95 152.64-4.48 153.89-5 155.34-6.15L155.34-6.15 157.89-2.65Q154.39 0.75 149.49 0.75L149.49 0.75Q144.29 0.75 141.51-2.85 138.74-6.45 138.74-13L138.74-13Q138.74-19.55 141.39-23.35 144.04-27.15 148.89-27.15L148.89-27.15Q153.54-27.15 156.14-23.78 158.74-20.4 158.74-13.85L158.74-13.85ZM152.74-15.3L152.74-15.65Q152.74-19.4 151.84-21.13 150.94-22.85 148.94-22.85L148.94-22.85Q147.09-22.85 146.11-21.18 145.14-19.5 144.94-15.3L144.94-15.3 152.74-15.3ZM173.03-34.55L179.38-34.55 179.38-5.25 190.53-5.25 189.83 0 173.03 0 173.03-34.55ZM210.63-6.4Q210.63-5.1 210.98-4.48 211.33-3.85 212.13-3.45L212.13-3.45 210.88 0.65Q208.83 0.4 207.6-0.45 206.38-1.3 205.78-3.05L205.78-3.05Q203.48 0.75 199.33 0.75L199.33 0.75Q196.03 0.75 194.08-1.48 192.13-3.7 192.13-7.4L192.13-7.4Q192.13-11.7 194.8-13.95 197.48-16.2 202.58-16.2L202.58-16.2 204.63-16.2 204.63-18.05Q204.63-20.55 203.75-21.58 202.88-22.6 200.93-22.6L200.93-22.6Q198.58-22.6 195.08-21.3L195.08-21.3 193.68-25.3Q195.68-26.2 197.83-26.68 199.98-27.15 201.93-27.15L201.93-27.15Q210.63-27.15 210.63-18.35L210.63-18.35 210.63-6.4ZM200.98-3.7Q203.38-3.7 204.63-7L204.63-7 204.63-12.55 203.18-12.55Q200.63-12.55 199.45-11.4 198.28-10.25 198.28-7.85L198.28-7.85Q198.28-5.8 198.98-4.75 199.68-3.7 200.98-3.7L200.98-3.7ZM228.08-27.1Q229.23-27.1 230.13-26.75L230.13-26.75 229.13-20.85Q228.13-21.1 227.28-21.1L227.28-21.1Q225.38-21.1 224.28-19.45 223.18-17.8 222.58-14.55L222.58-14.55 222.58 0 216.43 0 216.43-26.45 221.78-26.45 222.23-21.85Q224.08-27.1 228.08-27.1L228.08-27.1Z" opacity="1" transform="matrix(1,0,0,1,0,0)" fill="white" class="wordmark-text-0" id="SvgjsPath1308"></path></svg></g></svg></g></svg></g></svg></g><g transform="matrix(1,0,0,1,69.17157242809546,0)"><svg viewBox="0 0 70.69685514380906 48.32885464098074" height="48.32885464098074" width="70.69685514380906"><g><svg xmlns="http://www.w3.org/2000/svg" xmlns:xlink="http://www.w3.org/1999/xlink" xmlns:a="http://ns.adobe.com/AdobeSVGViewerExtensions/3.0/" version="1.1" x="8" y="0" viewBox="3.253 5.760999999999999 122.355 108.11000000000001" enable-background="new 28.653 18.739 100 100" xml:space="preserve" id="SvgjsSvg1307" width="54.69685514380906" height="48.32885464098074" class="icon-icon-0" data-fill-palette-color="accent"><path d="M85.378 41.657C85.629 40.574 85.795 39.491 85.795 38.408 85.795 37.824 85.795 37.241 85.711 36.659 85.378 34.161 84.297 31.994 82.38 30.079 80.048 27.747 77.3 26.582 74.051 26.582S67.971 27.747 65.722 30.079C63.806 31.995 62.723 34.161 62.391 36.659 62.307 37.242 62.307 37.824 62.307 38.408 62.307 41.657 63.474 44.405 65.723 46.736 67.973 48.986 70.804 50.151 74.052 50.151S80.049 48.985 82.381 46.736C83.879 45.239 84.879 43.572 85.378 41.657" fill="black"></path><path d="M125.608 48.153L118.694 54.985V63.812L87.795 43.156 78.964 61.729H62.557V70.976H86.129L92.626 58.064C93.208 58.481 93.707 58.897 94.124 59.398L88.46 70.725 102.119 77.889 89.96 78.055V113.871H104.785V86.886H114.196V107.29H107.366V113.871H125.608V107.29H118.694V86.886H125.608z" fill="black"></path><path d="M88.709 73.641H31.906V79.053H88.709z" fill="black"></path><path d="M90.042 73.391H90.21L89.96 73.306V73.391z" fill="black"></path><polygon points="85.296,113.872 85.296,81.719 31.906,81.719 31.906,113.872 85.296,113.872 " fill="black"></polygon><polygon points="39.985,24.5 31.906,24.5 31.906,70.976 39.985,70.976 39.985,24.5 " fill="black"></polygon><polygon points="45.316,69.143 45.316,70.976 57.393,70.976 57.393,69.143 45.316,69.143 " fill="black"></polygon></svg></g></svg></g><g><rect width="28.923572428095476" height="3.1536512206234675" y="44.17520342035727" x="139.86842757190453" fill="black"></rect><rect width="28.923572428095476" height="3.1536512206234675" y="44.17520342035727" x="40.247999999999976" fill="black"></rect></g></svg></g></svg></g></svg></g><defs><mask></mask></defs></svg><rect width="320" height="360" fill="black" stroke="none" visibility="hidden"></rect></g></mask><linearGradient x1="0" x2="1" y1="0.5" y2="0.5" id="d683fd3b-4f3c-4521-b8f2-d73f93ede406"><stop stop-color="#f00b51" offset="0"></stop><stop stop-color="#730062" offset="1"></stop></linearGradient><rect width="320.00014798658833" height="360" fill="url(#d683fd3b-4f3c-4521-b8f2-d73f93ede406)" mask="url(#e13ba747-1b09-436c-9744-8436ab0b1bf2)" data-fill-palette-color="primary"></rect></svg><rect width="320" height="360" fill="none" stroke="none" visibility="hidden"></rect></g></svg></g></svg>